<svg xmlns="http://www.w3.org/2000/svg" width="13.889" height="17.981" viewBox="0 0 13.889 17.981"><defs><style>.a{fill:#456eee;}</style></defs><path class="a" d="M19.86,11.634a1.226,1.226,0,1,1-1.226,1.226,1.185,1.185,0,0,1,1.226-1.226m0-1.634a2.86,2.86,0,1,0,2.86,2.86A2.86,2.86,0,0,0,19.86,10Z" transform="translate(-12.915 -6.732)"/><path class="a" d="M13.945,3.634a5.4,5.4,0,0,1,5.311,5.719c0,3.268-3.513,6.822-5.311,8.66-1.8-1.838-5.311-5.6-5.311-8.66a5.527,5.527,0,0,1,5.311-5.719m0-1.634A7.036,7.036,0,0,0,7,9.353c0,4.044,4.7,8.7,6.373,10.376a.776.776,0,0,0,1.144,0c1.675-1.675,6.373-6.25,6.373-10.376S17.989,2,13.945,2Z" transform="translate(-7 -2)"/></svg>